<?xml version="1.0" standalone="no"?>
<!DOCTYPE svg PUBLIC "-//W3C//DTD SVG 20010904//EN"
 "http://www.w3.org/TR/2001/REC-SVG-20010904/DTD/svg10.dtd">
<svg version="1.0" xmlns="http://www.w3.org/2000/svg"
 width="512.000000pt" height="512.000000pt" viewBox="0 0 512.000000 512.000000"
 preserveAspectRatio="xMidYMid meet">
<metadata>
Created by potrace 1.11, written by Peter Selinger 2001-2013
</metadata>
<g transform="translate(0.000000,512.000000) scale(0.100000,-0.100000)"
fill="#000000" stroke="none">
<path d="M2370 4416 c-57 -26 -89 -67 -114 -149 -6 -18 -8 -17 -43 2 -77 41
-193 54 -256 27 -64 -26 -112 -94 -136 -191 l-10 -40 -60 -1 c-69 -1 -163 -42
-194 -85 -28 -39 -32 -97 -8 -142 l19 -37 -27 -6 c-74 -18 -112 -64 -105 -127
2 -17 2 -28 -1 -25 -3 3 -27 1 -53 -3 -133 -25 -185 -96 -152 -208 9 -31 7
-37 -26 -73 -38 -43 -38 -32 -18 -218 2 -25 6 -72 9 -105 3 -33 7 -71 10 -85
2 -14 7 -45 10 -70 6 -51 15 -112 21 -152 4 -24 1 -28 -20 -28 -31 0 -31 -1
-51 163 -3 23 -8 53 -10 67 -2 14 -7 52 -10 85 -3 33 -7 71 -10 85 -2 14 -7
46 -10 73 -3 26 -7 68 -10 95 -17 145 -36 182 -96 182 -34 0 -63 -12 -299
-127 -474 -230 -476 -231 -487 -310 -8 -61 40 -149 100 -180 76 -39 116 -27
311 96 115 73 156 89 156 64 0 -4 13 -73 30 -153 16 -79 28 -145 27 -146 -2
-1 -324 -13 -410 -15 -46 -1 -57 -124 -26 -302 16 -95 31 -112 99 -110 54 1
53 2 65 -77 4 -25 9 -52 10 -61 2 -9 6 -34 9 -55 4 -22 8 -46 11 -54 2 -8 6
-37 10 -64 3 -27 8 -52 9 -55 2 -3 7 -26 10 -51 3 -25 8 -56 11 -70 12 -64 15
-78 21 -115 3 -22 7 -50 9 -62 2 -11 5 -29 8 -40 3 -10 9 -43 12 -73 4 -30 8
-57 10 -60 2 -3 11 -46 19 -95 9 -50 18 -99 20 -110 2 -11 10 -49 17 -84 17
-86 48 -121 142 -156 81 -30 245 -62 369 -70 123 -9 121 -8 140 -63 15 -40 24
-52 55 -65 93 -39 303 -63 723 -83 314 -15 829 -5 1045 20 28 3 79 8 115 11
36 3 74 8 85 10 11 2 28 4 38 4 12 1 28 21 47 64 l29 63 103 33 c57 18 111 37
120 42 10 5 25 9 33 9 8 0 23 4 33 10 9 5 69 30 132 56 63 25 223 99 355 164
132 65 311 152 398 194 91 44 157 82 157 90 0 29 -35 96 -113 215 l-82 123
-60 -8 c-84 -10 -119 -8 -159 11 -39 19 -60 45 -74 97 -12 45 11 102 59 138
18 14 38 30 45 35 19 15 23 66 8 96 -17 34 -138 146 -180 166 -31 15 -33 14
-159 -52 -130 -68 -142 -70 -146 -25 -3 32 4 46 52 103 44 52 48 61 36 78 -15
21 -86 76 -133 104 l-32 18 -80 -47 c-44 -26 -86 -53 -92 -61 -7 -8 -18 -15
-24 -15 -9 0 -4 40 15 137 16 75 31 160 35 187 3 28 7 54 9 57 2 3 6 31 10 64
3 32 8 72 11 89 24 126 1 276 -53 344 l-28 37 17 51 c21 63 30 138 22 183 -8
42 -71 107 -133 137 -41 21 -43 25 -45 66 -3 68 -38 108 -119 132 -16 5 -16 7
0 48 26 63 25 212 -1 253 -57 88 -111 119 -211 119 -77 1 -114 -14 -161 -63
l-27 -29 -43 47 c-57 64 -125 93 -226 97 -87 3 -126 -6 -161 -42 l-24 -24 -19
22 c-45 50 -193 82 -254 54z"/>
</g>
</svg>
